<?xml version="1.0" standalone="no"?>
<!DOCTYPE svg PUBLIC "-//W3C//DTD SVG 20010904//EN"
 "http://www.w3.org/TR/2001/REC-SVG-20010904/DTD/svg10.dtd">
<svg version="1.0" xmlns="http://www.w3.org/2000/svg"
 width="260.000000pt" height="260.000000pt" viewBox="0 0 260.000000 260.000000"
 preserveAspectRatio="xMidYMid meet">
<metadata>
Created by potrace 1.14, written by Peter Selinger 2001-2017
</metadata>
<g transform="translate(0.000000,260.000000) scale(0.100000,-0.100000)"
fill="#000000" stroke="none">
<path d="M632 2370 c-100 -26 -166 -64 -237 -135 -75 -74 -128 -173 -162 -303
-25 -90 -27 -113 -27 -312 -1 -222 4 -269 46 -400 71 -226 222 -359 450 -397
110 -19 248 -8 342 27 123 46 233 146 288 261 12 27 23 47 25 45 1 -1 -67
-214 -152 -473 -85 -259 -155 -474 -155 -477 0 -3 74 -6 164 -6 l163 0 42 153
c24 83 47 169 53 190 l11 37 262 0 262 0 37 -137 c21 -76 44 -162 52 -191 l15
-52 166 0 c128 0 164 3 161 13 -7 16 -91 273 -313 950 l-186 567 -197 -2 -196
-3 -73 -220 c-40 -121 -70 -204 -67 -185 30 199 30 418 -1 564 -56 270 -192
430 -410 486 -104 26 -261 26 -363 0z m283 -259 c68 -30 118 -103 150 -216 12
-42 18 -115 22 -245 6 -214 -9 -324 -58 -427 -98 -207 -339 -203 -433 7 -91
203 -81 633 19 789 30 47 62 76 105 95 49 21 146 20 195 -3z m934 -971 c45
-162 81 -301 81 -308 0 -10 -41 -12 -187 -10 -118 2 -187 7 -186 13 0 6 39
149 86 320 47 171 89 324 93 340 l7 30 13 -45 c7 -25 49 -178 93 -340z"/>
</g>
</svg>
