<script lang="ts">
	import generateId from '$lib/utils/generateIds';

	export let fillPercent: number = 100;
	export let fillColor: string = '#F5CA14';
	export let strokeColor: string = '#F5CA14';
	export let size: number = 24;
	export let ariaLabel: string = 'star';
	export let id: string = generateId();
	export let role = 'img';
</script>

<svg viewBox="-819.5 -350.5 1639 701" width="1639" height="701" style="background-color: rgb(255, 255, 255);" xmlns="http://www.w3.org/2000/svg"><path d="M171.86277976833065,-82.51391716422873L160.49233230087745,-76.57608813465512M160.49233230087745,-76.57608813465512L160.49233230087742,-76.57594702582091M160.49233230087745,-76.57608813465512L154.55450327130086,-87.94653560210264M171.86277976833065,-82.51391716422873L171.86277976833063,-82.51377605539453M171.86277976833065,-82.51391716422873L165.92495073875406,-93.88436463167626" style="fill:none;stroke:rgb(0,0,0);stroke-width:1;stroke-linecap:round"></path><path d="M165.92495073875406,-93.88436463167626L171.86277976833065,-82.51391716422873L160.49233230087745,-76.57608813465512zM154.55450327130086,-87.94653560210264L165.92495073875406,-93.88436463167626L160.49233230087745,-76.57608813465512z" style="fill:rgb(255,255,255); fill-opacity: 0.4"></path><path d="M154.55450327130086,-87.94653560210264L154.55450327130083,-87.94639449326844M154.55450327130086,-87.94653560210264L165.92495073875406,-93.88436463167626M165.92495073875406,-93.88436463167626L165.92495073875403,-93.88422352284206M-40.0322510237968,77.39662397525161L-58.053984151969345,86.80786046686701M-58.053984151969345,86.80786046686701L-58.05398415196935,86.80796062020099M-58.053984151969345,86.80786046686701L-104.4127213323083,-1.9652556233141272M-40.0322510237968,77.39662397525161L-40.032251023796825,77.39672412858559M-40.0322510237968,77.39662397525161L-86.39098820413577,-11.376492114929526" style="fill:none;stroke:rgb(0,0,0);stroke-width:1;stroke-linecap:round"></path><path d="M-86.39098820413575,-11.376492114929528L-40.0322510237968,77.39662397525161L-58.053984151969345,86.80786046686701zM-104.41272133230827,-1.9652556233141285L-86.39098820413575,-11.376492114929528L-58.053984151969345,86.80786046686701z" style="fill:rgb(255,255,255); fill-opacity: 0.4"></path><path d="M-104.4127213323083,-1.9652556233141272L-104.41272133230831,-1.965155469980152M-104.4127213323083,-1.9652556233141272L-86.39098820413577,-11.376492114929526M-86.39098820413577,-11.376492114929526L-86.39098820413577,-11.376391961595552M45.23080210707684,18.2115459397893L-29.643168358361713,57.31192757927279M-29.643168358361713,57.31192757927279L-29.643168358361724,57.31200174299414M-29.643168358361713,57.31192757927279L-63.97189541869671,-8.424722250086953M45.23080210707684,18.2115459397893L45.23080210707683,18.211620103510647M45.23080210707684,18.2115459397893L10.902075046741837,-47.52510388957045" style="fill:none;stroke:rgb(0,0,0);stroke-width:1;stroke-linecap:round"></path><path d="M10.902075046741835,-47.52510388957045L45.23080210707684,18.2115459397893L-29.643168358361713,57.31192757927279zM-63.97189541869671,-8.424722250086953L10.902075046741835,-47.52510388957045L-29.643168358361713,57.31192757927279z" style="fill:rgb(255,255,255); fill-opacity: 0.4"></path><path d="M-63.97189541869671,-8.424722250086953L-63.971895418696725,-8.424648086365606M-63.97189541869671,-8.424722250086953L10.902075046741837,-47.52510388957045M10.902075046741837,-47.52510388957045L10.902075046741826,-47.5250297258491M149.5509612255872,-43.693280433258494L58.587381485961586,3.809351803330463M58.587381485961586,3.809351803330463L58.58738148596157,3.809412799388342M58.587381485961586,3.809351803330463L30.35367119413841,-50.255849145575844M149.5509612255872,-43.693280433258494L149.5509612255872,-43.69321943720061M149.5509612255872,-43.693280433258494L121.31725093376403,-97.7584813821648" style="fill:none;stroke:rgb(0,0,0);stroke-width:1;stroke-linecap:round"></path><path d="M121.31725093376407,-97.75848138216483L149.55096122558723,-43.6932804332585L58.587381485961586,3.809351803330462zM30.35367119413841,-50.25584914557586L121.31725093376407,-97.75848138216483L58.587381485961586,3.809351803330462z" style="fill:rgb(255,255,255); fill-opacity: 0.4"></path><path d="M30.35367119413841,-50.255849145575844L30.3536711941384,-50.25578814951797M30.35367119413841,-50.255849145575844L121.31725093376403,-97.7584813821648M121.31725093376403,-97.7584813821648L121.31725093376403,-97.75842038610692" style="fill:none;stroke:rgb(0,0,0);stroke-width:1;stroke-linecap:round"></path><path d="M160.49233230087745,-76.57608813465512L160.49233230087742,-76.57594702582091L154.55450327130086,-87.94653560210264zM171.86277976833065,-82.51391716422873L171.86277976833063,-82.51377605539453L160.49233230087745,-76.57608813465512zM154.55450327130086,-87.94653560210264L154.55450327130083,-87.94639449326844L165.92495073875406,-93.88436463167626zM165.92495073875406,-93.88436463167626L165.92495073875403,-93.88422352284206L171.86277976833065,-82.51391716422873z" style="fill:rgb(255,255,255); fill-opacity: 0.4"></path><path d="M34.34348999459697,-2.636730982960987L-40.53048047084158,36.46365065652251M-40.53048047084158,36.46365065652251L-40.53048047084159,36.463659910022834M-40.53048047084158,36.46365065652251L-44.813718706380286,28.261606592072873M-44.813718706380286,28.261606592072873L-44.813718706380286,28.2616158455732M-44.813718706380286,28.261606592072873L30.06025175905827,-10.838775047410623" style="fill:none;stroke:rgb(0,0,0);stroke-width:1;stroke-linecap:round"></path><path d="M-44.813718706380286,28.261606592072873L30.060251759058264,-10.83877504741062L-40.53048047084158,36.46365065652251zM30.060251759058264,-10.83877504741062L34.343489994596965,-2.6367309829609833L-40.53048047084158,36.46365065652251z" style="fill:rgb(249,240,107); fill-opacity: 0.4"></path><path d="M34.34348998319437,-2.6367304940625487L34.34348998319437,-2.6367212405613434M34.34348998319437,-2.6367304940625487L30.060251543414953,-10.838774949616125M34.34348998319437,-2.6367304940625487L47.871718730593585,-16.710230673621208M34.34348999459697,-2.636730982960987L34.343489994596965,-2.6367217294606617M34.34348999459697,-2.636730982960987L30.06025175905827,-10.838775047410623M30.06025154341495,-10.838765696114917L30.060251543414953,-10.838774949616125M30.060251543414953,-10.838774949616125L47.871718730593585,-16.710230673621208M30.06025175905827,-10.838775047410623L30.060251759058264,-10.838765793910298" style="fill:none;stroke:rgb(0,0,0);stroke-width:1;stroke-linecap:round"></path><path d="M34.343489753806615,-2.63673085721642L30.06025151826791,-10.838774921666056L47.871718629721656,-16.710230790678462z" style="fill:rgb(249,240,107); fill-opacity: 0.4"></path><path d="M-40.0322510237968,77.39662397525161L-40.03225102379681,77.39672412858559L-58.053984151969345,86.80786046686701zM-58.053984151969345,86.80786046686701L-58.05398415196935,86.80796062020099L-104.41272133230827,-1.9652556233141285zM-86.39098820413575,-11.376492114929528L-86.39098820413577,-11.376391961595553L-40.0322510237968,77.39662397525161zM-104.41272133230827,-1.9652556233141285L-104.4127213323083,-1.965155469980153L-86.39098820413575,-11.376492114929528z" style="fill:rgb(255,255,255); fill-opacity: 0.4"></path><path d="M-40.53048047084158,36.46365065652251L-40.53048047084158,36.463659910022834L-44.813718706380286,28.261606592072873zM-44.813718706380286,28.261606592072873L-44.813718706380286,28.2616158455732L30.060251759058264,-10.83877504741062zM34.343489994596965,-2.6367309829609833L34.343489994596965,-2.6367217294606604L-40.53048047084158,36.46365065652251zM34.343489753806615,-2.63673085721642L30.06025151826791,-10.838765668165735L30.06025151826791,-10.838774921666056zM30.060251759058264,-10.83877504741062L30.060251759058264,-10.838765793910298L34.343489994596965,-2.6367309829609833zM34.343489753806615,-2.636721603716097L34.343489753806615,-2.63673085721642L47.871718629721656,-16.710230790678462zM30.06025151826791,-10.838774921666056L30.06025151826791,-10.838765668165735L47.871718629721656,-16.710230790678462zM-40.53048047084158,36.463659910022834L-44.813718706380286,28.2616158455732L-44.813718706380286,28.261606592072873zM34.343489994596965,-2.6367217294606604L-40.53048047084158,36.463659910022834L-40.53048047084158,36.46365065652251zM-44.813718706380286,28.2616158455732L30.060251759058264,-10.838765793910298L30.060251759058264,-10.83877504741062zM34.343489753806615,-2.63673085721642L34.343489753806615,-2.636721603716097L30.06025151826791,-10.838765668165735zM30.060251759058264,-10.838765793910298L34.343489994596965,-2.6367217294606604L34.343489994596965,-2.6367309829609833z" style="fill:rgb(249,240,107); fill-opacity: 0.4"></path><path d="M-29.643168358361713,57.31192757927279L-29.643168358361724,57.31200174299415L-63.97189541869671,-8.424722250086953zM45.23080210707684,18.2115459397893L45.23080210707683,18.211620103510647L-29.643168358361713,57.31192757927279zM-63.97189541869671,-8.424722250086953L-63.971895418696725,-8.424648086365607L10.902075046741835,-47.52510388957045zM10.902075046741835,-47.52510388957045L10.902075046741823,-47.5250297258491L45.23080210707684,18.2115459397893z" style="fill:rgb(255,255,255); fill-opacity: 0.4"></path><path d="M34.34348998319437,-2.6367212405613434L47.871718730593585,-16.710230673621208M30.06025154341495,-10.838765696114917L47.871718730593585,-16.710230673621208" style="fill:none;stroke:rgb(0,0,0);stroke-width:1;stroke-linecap:round"></path><path d="M30.06025151826791,-10.838765668165735L34.343489753806615,-2.636721603716097L47.871718629721656,-16.710230790678462z" style="fill:rgb(249,240,107); fill-opacity: 0.4"></path><path d="M58.587381485961586,3.809351803330462L58.58738148596157,3.809412799388341L30.35367119413841,-50.25584914557586zM149.55096122558723,-43.6932804332585L149.5509612255872,-43.693219437200625L58.587381485961586,3.809351803330462zM30.35367119413841,-50.25584914557586L30.3536711941384,-50.255788149517976L121.31725093376407,-97.75848138216483zM121.31725093376407,-97.75848138216483L121.31725093376404,-97.75842038610695L149.55096122558723,-43.6932804332585z" style="fill:rgb(255,255,255); fill-opacity: 0.4"></path><path d="M34.343489994596965,-2.6367217294606617L-40.53048047084159,36.463659910022834M-40.53048047084159,36.463659910022834L-44.813718706380286,28.2616158455732M-44.813718706380286,28.2616158455732L30.060251759058264,-10.838765793910298" style="fill:none;stroke:rgb(0,0,0);stroke-width:1;stroke-linecap:round"></path><path d="M-44.813718706380286,28.2616158455732L-40.53048047084158,36.463659910022834L34.343489994596965,-2.6367217294606604zM30.060251759058264,-10.838765793910298L-44.813718706380286,28.2616158455732L34.343489994596965,-2.6367217294606604z" style="fill:rgb(249,240,107); fill-opacity: 0.4"></path><path d="M34.343489994596965,-2.6367217294606617L30.060251759058264,-10.838765793910298M34.34348998319437,-2.6367212405613434L30.06025154341495,-10.838765696114917M142.75973848569447,-74.55141249815406L150.41497961251795,-78.54910151798818" style="fill:none;stroke:rgb(0,0,0);stroke-width:1;stroke-linecap:round"></path><path d="M150.41497961251795,-78.54909689123802L152.451780480688,-74.64879626376153L155.88300898882045,-81.40459367501255zM148.37817874434793,-82.4494039127259L150.41497961251795,-78.54909689123802L155.88300898882045,-81.40459367501255z" style="fill:rgb(0,0,0)"></path><path d="M149.5509612255872,-43.693219437200625L58.58738148596157,3.809412799388341L58.587381485961586,3.809351803330462zM58.58738148596157,3.809412799388341L30.3536711941384,-50.255788149517976L30.35367119413841,-50.25584914557586zM121.31725093376404,-97.75842038610695L149.5509612255872,-43.693219437200625L149.55096122558723,-43.6932804332585zM30.3536711941384,-50.255788149517976L121.31725093376404,-97.75842038610695L121.31725093376407,-97.75848138216483zM45.23080210707683,18.211620103510647L-29.643168358361724,57.31200174299415L-29.643168358361713,57.31192757927279zM-29.643168358361724,57.31200174299415L-63.971895418696725,-8.424648086365607L-63.97189541869671,-8.424722250086953zM10.902075046741823,-47.5250297258491L45.23080210707683,18.211620103510647L45.23080210707684,18.2115459397893zM-63.971895418696725,-8.424648086365607L10.902075046741823,-47.5250297258491L10.902075046741835,-47.52510388957045z" style="fill:rgb(255,255,255); fill-opacity: 0.4"></path><path d="M-76.21131605875745,8.116794350890133L-94.23304918692997,17.52803084250553M-94.23304918692997,17.52803084250553L-94.23304918692999,17.528051200206246M-94.23304918692997,17.52803084250553L-103.65617330511512,-0.5164660992836699M-76.21131706013288,8.11679392738419L-76.21131706013288,8.116814285084907M-76.21131706013288,8.11679392738419L-85.63444036135516,-9.927701449989257M-76.21131706013288,8.11679392738419L-59.922749113449996,-0.6708899115779062M-76.21131605875745,8.116794350890133L-76.21131605875745,8.116814708590848M-76.21131605875745,8.116794350890133L-85.63444017694259,-9.927702590899067" style="fill:none;stroke:rgb(0,0,0);stroke-width:1;stroke-linecap:round"></path><path d="M-85.63444017694259,-9.927702590899072L-76.21131605875743,8.11679435089013L-94.23304918692997,17.52803084250553zM-103.65617330511512,-0.5164660992836732L-85.63444017694259,-9.927702590899072L-94.23304918692997,17.52803084250553z" style="fill:rgb(249,240,107); fill-opacity: 0.4"></path><path d="M-103.65617330511512,-0.5164660992836699L-103.65617330511513,-0.516445741582957M-103.65617330511512,-0.5164660992836699L-85.63444017694259,-9.927702590899067M-85.63444036135516,-9.927681092288543L-85.63444036135516,-9.927701449989257M-85.63444036135516,-9.927701449989257L-59.922749113449996,-0.6708899115779062M-85.63444017694259,-9.927702590899067L-85.63444017694259,-9.927682233198354" style="fill:none;stroke:rgb(0,0,0);stroke-width:1;stroke-linecap:round"></path><path d="M-76.2113162214375,8.116794435844254L-85.63444033962264,-9.927702505944948L-59.92274895403606,-0.6708907038863212z" style="fill:rgb(249,240,107); fill-opacity: 0.4"></path><path d="M-40.03225102379681,77.39672412858559L-58.05398415196935,86.80796062020099L-58.053984151969345,86.80786046686701zM-86.39098820413577,-11.376391961595553L-40.03225102379681,77.39672412858559L-40.0322510237968,77.39662397525161zM-58.05398415196935,86.80796062020099L-104.4127213323083,-1.965155469980153L-104.41272133230827,-1.9652556233141285zM-104.4127213323083,-1.965155469980153L-86.39098820413577,-11.376391961595553L-86.39098820413575,-11.376492114929528z" style="fill:rgb(255,255,255); fill-opacity: 0.4"></path><path d="M-76.21131706013288,8.116814285084907L-59.922749113449996,-0.6708899115779062M-85.63444036135516,-9.927681092288543L-59.922749113449996,-0.6708899115779062" style="fill:none;stroke:rgb(0,0,0);stroke-width:1;stroke-linecap:round"></path><path d="M-94.23304918692997,17.52803084250553L-94.23304918692997,17.528051200206242L-103.65617330511512,-0.5164660992836732zM-76.21131605875743,8.11679435089013L-76.21131605875743,8.116814708590846L-94.23304918692997,17.52803084250553zM-103.65617330511512,-0.5164660992836732L-103.65617330511512,-0.5164457415829578L-85.63444017694259,-9.927702590899072zM-76.2113162214375,8.116794435844254L-85.63444033962264,-9.927682148244234L-85.63444033962264,-9.927702505944948zM-85.63444017694259,-9.927702590899072L-85.63444017694259,-9.927682233198357L-76.21131605875743,8.11679435089013zM-76.2113162214375,8.11681479354497L-76.2113162214375,8.116794435844254L-59.92274895403606,-0.6708907038863212zM-85.63444033962264,-9.927702505944948L-85.63444033962264,-9.927682148244234L-59.92274895403606,-0.6708907038863212z" style="fill:rgb(249,240,107); fill-opacity: 0.4"></path><path d="M171.86277976833063,-82.51377605539453L160.49233230087742,-76.57594702582091L160.49233230087745,-76.57608813465512zM160.49233230087742,-76.57594702582091L154.55450327130083,-87.94639449326844L154.55450327130086,-87.94653560210264zM165.92495073875403,-93.88422352284206L171.86277976833063,-82.51377605539453L171.86277976833065,-82.51391716422873zM154.55450327130083,-87.94639449326844L165.92495073875403,-93.88422352284206L165.92495073875406,-93.88436463167626z" style="fill:rgb(255,255,255); fill-opacity: 0.4"></path><path d="M-76.21131605875743,8.116814708590846L-94.23304918692997,17.528051200206242L-94.23304918692997,17.52803084250553zM-94.23304918692997,17.528051200206242L-103.65617330511512,-0.5164457415829578L-103.65617330511512,-0.5164660992836732zM-76.2113162214375,8.116794435844254L-76.2113162214375,8.11681479354497L-85.63444033962264,-9.927682148244234zM-85.63444017694259,-9.927682233198357L-76.21131605875743,8.116814708590846L-76.21131605875743,8.11679435089013zM-103.65617330511512,-0.5164457415829578L-85.63444017694259,-9.927682233198357L-85.63444017694259,-9.927702590899072zM-85.63444033962264,-9.927682148244234L-76.2113162214375,8.11681479354497L-59.92274895403606,-0.6708907038863212z" style="fill:rgb(249,240,107); fill-opacity: 0.4"></path><path d="M149.5509612255872,-43.69321943720061L58.58738148596157,3.809412799388342M58.58738148596157,3.809412799388342L30.3536711941384,-50.25578814951797" style="fill:none;stroke:rgb(0,0,0);stroke-width:1;stroke-linecap:round"></path><path d="M30.3536711941384,-50.255788149517976L58.58738148596157,3.809412799388341L149.5509612255872,-43.693219437200625z" style="fill:rgb(255,255,255); fill-opacity: 0.4"></path><path d="M149.5509612255872,-43.69321943720061L121.31725093376403,-97.75842038610692M30.3536711941384,-50.25578814951797L121.31725093376403,-97.75842038610692" style="fill:none;stroke:rgb(0,0,0);stroke-width:1;stroke-linecap:round"></path><path d="M121.31725093376404,-97.75842038610695L30.3536711941384,-50.255788149517976L149.5509612255872,-43.693219437200625z" style="fill:rgb(255,255,255); fill-opacity: 0.4"></path><path d="M-76.21131605875745,8.116814708590848L-94.23304918692999,17.528051200206246M-94.23304918692999,17.528051200206246L-103.65617330511513,-0.516445741582957M-76.21131706013288,8.116814285084907L-85.63444036135516,-9.927681092288543" style="fill:none;stroke:rgb(0,0,0);stroke-width:1;stroke-linecap:round"></path><path d="M-103.65617330511512,-0.5164457415829578L-94.23304918692997,17.528051200206242L-76.21131605875743,8.116814708590846z" style="fill:rgb(249,240,107); fill-opacity: 0.4"></path><path d="M-76.21131605875745,8.116814708590848L-85.63444017694259,-9.927682233198354M-103.65617330511513,-0.516445741582957L-85.63444017694259,-9.927682233198354" style="fill:none;stroke:rgb(0,0,0);stroke-width:1;stroke-linecap:round"></path><path d="M-85.63444017694259,-9.927682233198357L-103.65617330511512,-0.5164457415829578L-76.21131605875743,8.116814708590846z" style="fill:rgb(249,240,107); fill-opacity: 0.4"></path><path d="M45.23080210707683,18.211620103510647L-29.643168358361724,57.31200174299414M-29.643168358361724,57.31200174299414L-63.971895418696725,-8.424648086365606" style="fill:none;stroke:rgb(0,0,0);stroke-width:1;stroke-linecap:round"></path><path d="M-63.971895418696725,-8.424648086365607L-29.643168358361724,57.31200174299415L45.23080210707683,18.211620103510647z" style="fill:rgb(255,255,255); fill-opacity: 0.4"></path><path d="M45.23080210707683,18.211620103510647L10.902075046741826,-47.5250297258491M-63.971895418696725,-8.424648086365606L10.902075046741826,-47.5250297258491" style="fill:none;stroke:rgb(0,0,0);stroke-width:1;stroke-linecap:round"></path><path d="M10.902075046741823,-47.5250297258491L-63.971895418696725,-8.424648086365607L45.23080210707683,18.211620103510647z" style="fill:rgb(255,255,255); fill-opacity: 0.4"></path><path d="M-40.032251023796825,77.39672412858559L-58.05398415196935,86.80796062020099M-58.05398415196935,86.80796062020099L-104.41272133230831,-1.965155469980152M-40.032251023796825,77.39672412858559L-86.39098820413577,-11.376391961595552" style="fill:none;stroke:rgb(0,0,0);stroke-width:1;stroke-linecap:round"></path><path d="M-104.4127213323083,-1.965155469980153L-58.05398415196935,86.80796062020099L-40.03225102379681,77.39672412858559zM-86.39098820413577,-11.376391961595553L-104.4127213323083,-1.965155469980153L-40.03225102379681,77.39672412858559z" style="fill:rgb(255,255,255); fill-opacity: 0.4"></path><path d="M-104.41272133230831,-1.965155469980152L-86.39098820413577,-11.376391961595552M171.86277976833063,-82.51377605539453L160.49233230087742,-76.57594702582091M160.49233230087742,-76.57594702582091L154.55450327130083,-87.94639449326844" style="fill:none;stroke:rgb(0,0,0);stroke-width:1;stroke-linecap:round"></path><path d="M154.55450327130083,-87.94639449326844L160.49233230087742,-76.57594702582091L171.86277976833063,-82.51377605539453z" style="fill:rgb(255,255,255); fill-opacity: 0.4"></path><path d="M171.86277976833063,-82.51377605539453L165.92495073875403,-93.88422352284206M154.55450327130083,-87.94639449326844L165.92495073875403,-93.88422352284206" style="fill:none;stroke:rgb(0,0,0);stroke-width:1;stroke-linecap:round"></path><path d="M165.92495073875403,-93.88422352284206L154.55450327130083,-87.94639449326844L171.86277976833063,-82.51377605539453z" style="fill:rgb(255,255,255); fill-opacity: 0.4"></path></svg>